<svg id="Ebene_1" data-name="Ebene 1" xmlns="http://www.w3.org/2000/svg" viewBox="0 0 253.95 206.48"><title>logo</title><g id="Ebene_2" data-name="Ebene 2"><g id="Ebene_1-2" data-name="Ebene 1-2"><path d="M32.9,107.08A94.08,94.08,0,0,1,221.06,107v.06" transform="translate(0 0.03)" style="fill:none;stroke:#fff;stroke-linecap:round;stroke-miterlimit:10;stroke-width:26px"/><path d="M32.9,111.15h0a20.9,20.9,0,0,1,20.9,20.9v41.5a20.9,20.9,0,0,1-20.9,20.9h0A20.9,20.9,0,0,1,12,173.55v-41.5A20.9,20.9,0,0,1,32.9,111.15Z" transform="translate(0 0.03)" style="fill:none;stroke:#fff;stroke-linecap:round;stroke-miterlimit:20;stroke-width:24px"/><path d="M221.06,111.15h0a20.9,20.9,0,0,1,20.9,20.9v41.5a20.9,20.9,0,0,1-20.9,20.9h0a20.9,20.9,0,0,1-20.9-20.9v-41.5A20.9,20.9,0,0,1,221.06,111.15Z" transform="translate(0 0.03)" style="fill:none;stroke:#fff;stroke-linecap:round;stroke-miterlimit:20;stroke-width:24px"/></g></g></svg>